# xmcd CD database file
#
# Track frame offsets:
#	150
#	22330
#	46832
#	65847
#	84030
#	104705
#	122812
#	145157
#	159775
#	182197
#
# Disc length: 2663 seconds
#
# Revision: 1
# Processed by: cddbd v1.5.1PL2 Copyright (c) Steve Scherf et al.
# Submitted via: CDex 1.51
#
DISCID=870a650a
DTITLE=Ken Nicol - 2 frets from the Blues
DYEAR=1995
DGENRE=Blues
TTITLE0=2 Frets from the Blues
TTITLE1=Black Cat Blues
TTITLE2=I Feel Good
TTITLE3=Key to the Highway
TTITLE4=Georgia
TTITLE5=No Better Love
TTITLE6=Sitting on top of the World
TTITLE7=Fast Blues
TTITLE8=Steamroller Blues
TTITLE9=Sometimes you just can't Win
EXTD=YEAR: 1995
EXTT0=
EXTT1=
EXTT2=
EXTT3=
EXTT4=
EXTT5=
EXTT6=
EXTT7=
EXTT8=
EXTT9=
PLAYORDER=
